ModelForces
version=1
nRows=4
nColumns=155
inDegrees=no

This file contains the forces exerted on a model during a simulation.

A force is a generalized force, meaning that it can be either a force (N) or a torque (Nm).

Units are S.I. units (second, meters, Newtons, ...)
Angles are in degrees.

endheader
time	glut_med1_r	glut_med2_r	glut_med3_r	glut_min1_r	glut_min2_r	glut_min3_r	semimem_r	semiten_r	bifemlh_r	bifemsh_r	sar_r	add_long_r	add_brev_r	add_mag1_r	add_mag2_r	add_mag3_r	tfl_r	pect_r	grac_r	glut_max1_r	glut_max2_r	glut_max3_r	iliacus_r	psoas_r	quad_fem_r	gem_r	peri_r	rect_fem_r	vas_med_r	vas_int_r	vas_lat_r	med_gas_r	lat_gas_r	soleus_r	tib_post_r	flex_dig_r	flex_hal_r	tib_ant_r	per_brev_r	per_long_r	per_tert_r	ext_dig_r	ext_hal_r	glut_med1_l	glut_med2_l	glut_med3_l	glut_min1_l	glut_min2_l	glut_min3_l	semimem_l	semiten_l	bifemlh_l	bifemsh_l	sar_l	add_long_l	add_brev_l	add_mag1_l	add_mag2_l	add_mag3_l	tfl_l	pect_l	grac_l	glut_max1_l	glut_max2_l	glut_max3_l	iliacus_l	psoas_l	quad_fem_l	gem_l	peri_l	rect_fem_l	vas_med_l	vas_int_l	vas_lat_l	med_gas_l	lat_gas_l	soleus_l	tib_post_l	flex_dig_l	flex_hal_l	tib_ant_l	per_brev_l	per_long_l	per_tert_l	ext_dig_l	ext_hal_l	ercspn_r	ercspn_l	intobl_r	intobl_l	extobl_r	extobl_l	femur_lat_meniscii_r.femur_lat_r.force.X	femur_lat_meniscii_r.femur_lat_r.force.Y	femur_lat_meniscii_r.femur_lat_r.force.Z	femur_lat_meniscii_r.femur_lat_r.torque.X	femur_lat_meniscii_r.femur_lat_r.torque.Y	femur_lat_meniscii_r.femur_lat_r.torque.Z	femur_lat_meniscii_r.meniscus_lat_r.force.X	femur_lat_meniscii_r.meniscus_lat_r.force.Y	femur_lat_meniscii_r.meniscus_lat_r.force.Z	femur_lat_meniscii_r.meniscus_lat_r.torque.X	femur_lat_meniscii_r.meniscus_lat_r.torque.Y	femur_lat_meniscii_r.meniscus_lat_r.torque.Z	femur_med_meniscii_r.femur_med_r.force.X	femur_med_meniscii_r.femur_med_r.force.Y	femur_med_meniscii_r.femur_med_r.force.Z	femur_med_meniscii_r.femur_med_r.torque.X	femur_med_meniscii_r.femur_med_r.torque.Y	femur_med_meniscii_r.femur_med_r.torque.Z	femur_med_meniscii_r.meniscus_med_r.force.X	femur_med_meniscii_r.meniscus_med_r.force.Y	femur_med_meniscii_r.meniscus_med_r.force.Z	femur_med_meniscii_r.meniscus_med_r.torque.X	femur_med_meniscii_r.meniscus_med_r.torque.Y	femur_med_meniscii_r.meniscus_med_r.torque.Z	femur_med_tibia_r.tibia_upper_r.force.X	femur_med_tibia_r.tibia_upper_r.force.Y	femur_med_tibia_r.tibia_upper_r.force.Z	femur_med_tibia_r.tibia_upper_r.torque.X	femur_med_tibia_r.tibia_upper_r.torque.Y	femur_med_tibia_r.tibia_upper_r.torque.Z	femur_med_tibia_r.femur_med_r.force.X	femur_med_tibia_r.femur_med_r.force.Y	femur_med_tibia_r.femur_med_r.force.Z	femur_med_tibia_r.femur_med_r.torque.X	femur_med_tibia_r.femur_med_r.torque.Y	femur_med_tibia_r.femur_med_r.torque.Z	femur_lat_tibia_r.tibia_upper_r.force.X	femur_lat_tibia_r.tibia_upper_r.force.Y	femur_lat_tibia_r.tibia_upper_r.force.Z	femur_lat_tibia_r.tibia_upper_r.torque.X	femur_lat_tibia_r.tibia_upper_r.torque.Y	femur_lat_tibia_r.tibia_upper_r.torque.Z	femur_lat_tibia_r.femur_lat_r.force.X	femur_lat_tibia_r.femur_lat_r.force.Y	femur_lat_tibia_r.femur_lat_r.force.Z	femur_lat_tibia_r.femur_lat_r.torque.X	femur_lat_tibia_r.femur_lat_r.torque.Y	femur_lat_tibia_r.femur_lat_r.torque.Z	aACL_R	pACL_R	aPCL_R	pPCL_R	aMCL_R	mMCL_R	pMCL_R	aLCL_R	mLCL_R	pLCL_R	aPCL_L	pPCL_L	aMCL_L	aLCL_L
      0.13530264	     12.80730979	      9.61302421	     10.35618713	      4.41332645	      5.09294012	      5.62494426	    105.00252533	    169.82585708	    182.21960703	    338.62829726	    127.50263404	      9.58265965	      6.84122675	      0.00000000	      4.19954642	      7.15203604	      6.80033839	      3.72874481	    100.55575718	      6.21114780	      9.45158673	      7.11756591	     29.89079496	     21.20234661	      6.08633757	      4.04314102	      6.26538109	     33.71155326	      0.00000000	      0.00000000	      0.00000000	      0.00000000	     13.29977083	      0.00000000	      0.00000000	      0.00000000	      0.00000000	     30.34889393	      1.54382149	      1.21743402	     19.33916068	     21.82821953	      5.91552405	     12.80730979	      9.61302421	     10.35618713	      4.41332645	      5.09294012	      5.62494426	      0.00000000	      7.18407738	     13.88105408	     12.11656253	      2.51655360	      9.58265965	      6.84122675	      0.00000000	      4.19954642	      7.15203604	      6.04888791	      3.72874481	      2.60401537	      6.21114780	      9.45158673	      7.11756591	     29.89079496	     21.20234661	      6.08633757	      4.04314102	      6.26538109	     19.89890676	      0.00000000	      0.00000000	      0.00000000	     21.05771418	     10.12003267	     56.15707514	     54.40650296	      6.13713936	      5.47651323	     15.22330116	      8.23993920	     20.17847189	      3.27639693	     10.85210581	      3.44919114	     41.55376228	     41.55376228	     15.60385340	     15.60385340	     32.77557572	     32.77557572	    396.80885577	    410.85872611	     44.14883487	    -27.91079773	      9.86416780	    159.55147099	   -396.80885577	   -410.85872611	    -44.14883487	     12.40589738	    -11.75590482	     -2.58881375	    371.95437629	    532.58720621	     14.70818388	      5.83047916	     -7.78431361	    147.60245117	   -371.95437629	   -532.58720621	    -14.70818388	     -9.65629407	      6.34240206	      1.36034835	    -27.84964777	   -199.39257441	     75.66783341	     -5.04643613	      1.53750850	      2.20643500	     27.84964777	    199.39257441	    -75.66783341	     34.67966277	     -0.69192017	     10.92832669	      0.00000000	      0.00000000	      0.00000000	      0.00000000	      0.00000000	      0.00000000	      0.00000000	      0.00000000	      0.00000000	      0.00000000	      0.00000000	      0.00000000	     16.55479041	      8.70245750	    450.53830159	    318.41607286	      0.00000000	      0.00000000	      0.00000000	     -1.38412281	      0.00000000	      0.00000000	      0.00000000	      0.00000000	      0.00000001	      0.00000000
      0.13558984	     12.79772373	      9.59797398	     10.33979698	      4.40668814	      5.08564926	      5.61587109	    104.57285539	    169.64703725	    182.13958913	    338.47935997	    127.43315600	      9.56749124	      6.83103127	      0.00000000	      4.19297661	      7.13999014	      6.79791880	      3.72310571	    100.45979471	      6.20137213	      9.43667918	      7.10618473	     29.86287366	     21.17050371	      6.07700165	      4.03852540	      6.27069414	     33.66161438	      0.00000000	      0.00000000	      0.00000000	      0.00000000	     13.71733366	      0.00000000	      0.00000000	      0.00000000	      0.00000000	     30.42278814	      1.53367744	      1.20825726	     16.79680150	     21.91494426	      5.93688471	     12.79772373	      9.59797398	     10.33979698	      4.40668814	      5.08564926	      5.61587109	      0.00000000	      7.17219831	     13.86502657	     12.09792615	      2.51278580	      9.56749124	      6.83103127	      0.00000000	      4.19297661	      7.13999014	      6.04155170	      3.72310571	      2.60004937	      6.20137213	      9.43667918	      7.10618473	     29.86287366	     21.17050371	      6.07700165	      4.03852540	      6.27069414	     19.86540032	      0.00000000	      0.00000000	      0.00000000	     21.07352725	     10.12419354	     56.11408658	     54.36988590	      6.12767950	      5.46773449	     15.20253868	      8.22711833	     20.15855041	      3.27149882	     10.82694497	      3.44010444	     41.49112285	     41.49112285	     15.57857150	     15.57857150	     32.75249748	     32.75249748	    397.89223990	    409.53050281	     45.70932933	    -28.51584190	      9.89991499	    159.99834574	   -397.89223990	   -409.53050281	    -45.70932933	     12.40426311	    -11.81309054	     -2.60868309	    374.67326286	    536.97162220	     12.57226895	      6.73049566	     -7.82157566	    148.63517532	   -374.67326286	   -536.97162220	    -12.57226895	     -9.72975421	      6.40014313	      1.45793239	    -28.35481321	   -200.32874547	     75.93534537	     -5.06153965	      1.55483437	      2.22419210	     28.35481321	    200.32874547	    -75.93534537	     34.79958489	     -0.70326822	     11.12676973	      0.00000000	      0.00000000	      0.00000000	      0.00000000	      0.00000000	      0.00000000	      0.00000000	      0.00000000	      0.00000000	      0.00000000	      0.00000000	      0.00000000	     16.66309888	      8.76181205	    453.53591940	    320.01795163	      0.00000000	      0.00000000	      0.00000000	     -1.31626839	      0.00000000	      0.00000000	      0.00000000	      0.00000000	      0.00000001	      0.00000000
      0.13594335	     12.78566022	      9.57952895	     10.31970960	      4.39855214	      5.07671387	      5.60474297	    104.03926835	    169.42547945	    182.04337219	    338.32529298	    127.34966565	      9.54890166	      6.81853535	      0.00000000	      4.18491903	      7.12522507	      6.79494268	      3.71619321	    100.34250524	      6.18939159	      9.41840952	      7.09223677	     29.82865722	     21.13148111	      6.06555861	      4.03286911	      6.27696277	     33.63482008	      0.00000000	      0.00000000	      0.00000000	      0.00000000	     14.19466190	      0.00000000	      0.00000000	      0.00000000	      0.00000000	     30.51248822	      1.52037605	      1.19639405	     15.39298577	     22.02250932	      5.96334713	     12.78566022	      9.57952895	     10.31970960	      4.39855214	      5.07671387	      5.60474297	      0.00000000	      7.15764000	     13.84523498	     12.07508584	      2.50816790	      9.54890166	      6.81853535	      0.00000000	      4.18491903	      7.12522507	      6.03255749	      3.71619321	      2.59518866	      6.18939159	      9.41840952	      7.09223677	     29.82865722	     21.13148111	      6.06555861	      4.03286911	      6.27696277	     19.82430184	      0.00000000	      0.00000000	      0.00000000	     21.09235082	     10.12906072	     56.06071456	     54.32485183	      6.11619803	      5.45711103	     15.17697075	      8.21136722	     20.13400089	      3.26549614	     10.79599081	      3.42895781	     41.41435119	     41.41435119	     15.54758750	     15.54758750	     32.72421675	     32.72421675	    397.71196320	    408.95187096	     47.33581897	    -29.16446542	      9.90476754	    159.90968979	   -397.71196320	   -408.95187096	    -47.33581897	     12.42222229	    -11.83569744	     -2.56060528	    377.61016826	    533.46264263	     11.27554028	      7.12149972	     -7.84426168	    149.82964266	   -377.61016826	   -533.46264263	    -11.27554028	     -9.64334534	      6.43314826	      1.38713303	    -29.02963928	   -201.61419747	     76.42729720	     -5.08814751	      1.57872437	      2.24673650	     29.02963928	    201.61419747	    -76.42729720	     35.01790003	     -0.71787732	     11.39248593	      0.00000000	      0.00000000	      0.00000000	      0.00000000	      0.00000000	      0.00000000	      0.00000000	      0.00000000	      0.00000000	      0.00000000	      0.00000000	      0.00000000	     16.80197808	      8.82669011	    457.20100299	    321.93285914	      0.00000000	      0.00000000	      0.00000000	     -1.23733213	      0.00000000	      0.00000000	      0.00000000	      0.00000000	      0.00000001	      0.00000000
      0.13653921	     12.76469252	      9.54863956	     10.28606939	      4.38492615	      5.06175006	      5.58608691	    103.13241174	    169.05467842	    181.90067025	    338.14812459	    127.21581864	      9.51777089	      6.79760708	      0.00000000	      4.17141139	      7.10049351	      6.78948116	      3.70461388	    100.14958415	      6.16932857	      9.38781502	      7.06887954	     29.77136310	     21.06613833	      6.04639237	      4.02339784	      6.28686642	     33.77103493	      0.00000000	      0.00000000	      0.00000000	      0.00000000	     14.85457197	      0.00000000	      0.00000000	      0.00000000	      0.00000000	     30.66300422	      1.49546543	      1.17451594	     21.01544639	     22.20489719	      6.00846166	     12.76469252	      9.54863956	     10.28606939	      4.38492615	      5.06175006	      5.58608691	      0.00000000	      7.13326024	     13.81172609	     12.03683523	      2.50043387	      9.51777089	      6.79760708	      0.00000000	      4.17141139	      7.10049351	      6.01748734	      3.70461388	      2.58704827	      6.16932857	      9.38781502	      7.06887954	     29.77136310	     21.06613833	      6.04639237	      4.02339784	      6.28686642	     19.75539216	      0.00000000	      0.00000000	      0.00000000	     21.12250549	     10.13664007	     55.96963689	     54.24904847	      6.09724089	      5.43964722	     15.13385542	      8.18489574	     20.09255765	      3.25544433	     10.74388518	      3.41027135	     41.28577643	     41.28577643	     15.49570093	     15.49570093	     32.67686354	     32.67686354	    397.96352661	    407.65243224	     51.18378048	    -30.70386985	      9.94053172	    159.99427443	   -397.96352661	   -407.65243224	    -51.18378048	     12.47368679	    -11.91760153	     -2.50482791	    384.29592618	    532.75093016	      6.48231495	      8.99804962	     -7.92562808	    152.50309031	   -384.29592618	   -532.75093016	     -6.48231495	     -9.69959291	      6.55980584	      1.33752080	    -30.68114143	   -203.77022535	     77.11706250	     -5.12780226	      1.62331979	      2.26589684	     30.68114143	    203.77022535	    -77.11706250	     35.32722805	     -0.75008573	     12.05638048	      0.00000000	      0.00000000	      0.00000000	      0.00000000	      0.00000000	      0.00000000	      0.00000000	      0.00000000	      0.00000000	      0.00000000	      0.00000000	      0.00000000	     17.15273445	      9.02244583	    463.17582121	    324.70555810	      0.00000000	      0.00000000	      0.00000000	     -1.31632819	      0.00000000	      0.00000000	      0.00000000	      0.00000000	      0.00000001	      0.00000000
